<mxfile host="65bd71144e">
    <diagram id="8su7rU_C0NHvB32bWd4h" name="Page-1">
        <mxGraphModel dx="2616" dy="1629" grid="0" gridSize="10" guides="1" tooltips="1" connect="1" arrows="1" fold="1" page="1" pageScale="1" pageWidth="850" pageHeight="1100" math="0" shadow="0">
            <root>
                <mxCell id="0"/>
                <mxCell id="1" parent="0"/>
                <mxCell id="2" value="" style="rounded=0;whiteSpace=wrap;html=1;" vertex="1" parent="1">
                    <mxGeometry x="40" y="26" width="429" height="290" as="geometry"/>
                </mxCell>
                <mxCell id="69" style="edgeStyle=none;html=1;exitX=0;exitY=0.75;exitDx=0;exitDy=0;fontSize=14;entryX=0.693;entryY=0.078;entryDx=0;entryDy=0;entryPerimeter=0;" edge="1" parent="1" source="3" target="19">
                    <mxGeometry relative="1" as="geometry">
                        <mxPoint x="-63.5108642578125" y="424.15786038912256" as="targetPoint"/>
                    </mxGeometry>
                </mxCell>
                <mxCell id="3" value="&lt;font style=&quot;font-size: 19px;&quot; color=&quot;#050505&quot;&gt;Explore&lt;/font&gt;" style="rounded=1;whiteSpace=wrap;html=1;fillColor=#ffcd28;gradientColor=#ffa500;strokeColor=#d79b00;" vertex="1" parent="1">
                    <mxGeometry x="108" y="167" width="120" height="114" as="geometry"/>
                </mxCell>
                <mxCell id="79" style="edgeStyle=none;html=1;exitX=0;exitY=1;exitDx=0;exitDy=0;entryX=0.5;entryY=0;entryDx=0;entryDy=0;fontSize=13;fontColor=#43ce27;fillColor=#60a917;strokeColor=#2D7600;strokeWidth=3;" edge="1" parent="1" source="4" target="72">
                    <mxGeometry relative="1" as="geometry"/>
                </mxCell>
                <mxCell id="4" value="Book Now" style="rounded=1;whiteSpace=wrap;html=1;fillColor=#60a917;fontColor=#050505;strokeColor=#2D7600;strokeWidth=4;fontSize=18;" vertex="1" parent="1">
                    <mxGeometry x="272" y="167" width="120" height="115" as="geometry"/>
                </mxCell>
                <mxCell id="5" value="&lt;p&gt;&lt;font style=&quot;font-size: 36px;&quot;&gt;GARDEN 249&lt;/font&gt;&lt;/p&gt;" style="rounded=1;whiteSpace=wrap;html=1;" vertex="1" parent="1">
                    <mxGeometry x="116" y="93" width="276" height="60" as="geometry"/>
                </mxCell>
                <mxCell id="11" value="&lt;font style=&quot;font-size: 17px;&quot;&gt;Footer&lt;/font&gt;" style="rounded=0;whiteSpace=wrap;html=1;fontSize=23;" vertex="1" parent="1">
                    <mxGeometry x="40" y="293" width="429" height="23" as="geometry"/>
                </mxCell>
                <mxCell id="18" value="Garden249" style="rounded=1;whiteSpace=wrap;html=1;fontSize=17;align=left;" vertex="1" parent="1">
                    <mxGeometry x="43" y="30" width="94" height="27" as="geometry"/>
                </mxCell>
                <mxCell id="20" value="" style="group;labelBorderColor=#FCC40A;strokeColor=#d79b00;strokeWidth=3;fillColor=#ffcd28;gradientColor=#ffa500;" vertex="1" connectable="0" parent="1">
                    <mxGeometry x="-513" y="250" width="429" height="260" as="geometry"/>
                </mxCell>
                <mxCell id="16" value="Garden249" style="rounded=1;whiteSpace=wrap;html=1;fontSize=14;align=left;" vertex="1" parent="20">
                    <mxGeometry x="2.993023255813953" y="2.6315789473684212" width="134.6860465116279" height="14.210526315789473" as="geometry"/>
                </mxCell>
                <mxCell id="19" value="&lt;font style=&quot;font-size: 12px;&quot;&gt;User profile pic and name + Login/logout&lt;/font&gt;" style="rounded=1;whiteSpace=wrap;html=1;fontSize=8;align=right;" vertex="1" parent="20">
                    <mxGeometry x="193.54883720930232" y="2.6315789473684212" width="228.4674418604651" height="13.684210526315791" as="geometry"/>
                </mxCell>
                <mxCell id="21" value="&lt;font style=&quot;font-size: 17px;&quot;&gt;Footer&lt;/font&gt;" style="rounded=0;whiteSpace=wrap;html=1;fontSize=23;" vertex="1" parent="20">
                    <mxGeometry y="247.8947368421053" width="428.0023255813953" height="12.105263157894738" as="geometry"/>
                </mxCell>
                <mxCell id="26" value="Media Slide Show / Video?" style="rounded=1;whiteSpace=wrap;html=1;fontSize=12;" vertex="1" parent="20">
                    <mxGeometry x="161.62" y="25.25" width="251.41" height="96.75" as="geometry"/>
                </mxCell>
                <mxCell id="35" value="FAQ maybe with some movement" style="rounded=1;whiteSpace=wrap;html=1;fontSize=12;" vertex="1" parent="20">
                    <mxGeometry x="161.62" y="132" width="251.41" height="107.48" as="geometry"/>
                </mxCell>
                <mxCell id="86" value="" style="group" vertex="1" connectable="0" parent="20">
                    <mxGeometry x="2.990000000000009" y="20" width="151" height="225.25" as="geometry"/>
                </mxCell>
                <mxCell id="23" value="Calendar with availabilitiy&lt;br&gt;&lt;br&gt;&lt;span style=&quot;font-size: 8px; text-align: left;&quot;&gt;&lt;font style=&quot;font-size: 13px;&quot; color=&quot;#43ce27&quot;&gt;&amp;nbsp;Book Now&lt;/font&gt;&lt;/span&gt;" style="rounded=1;whiteSpace=wrap;html=1;fontSize=15;" vertex="1" parent="86">
                    <mxGeometry x="6.990000000000002" y="23.619999999999997" width="131.69" height="81" as="geometry"/>
                </mxCell>
                <mxCell id="87" value="" style="group" vertex="1" connectable="0" parent="86">
                    <mxGeometry y="-6" width="151" height="231.25" as="geometry"/>
                </mxCell>
                <mxCell id="25" value="&lt;span style=&quot;font-size: 8px;&quot;&gt;Details / Info on the space&lt;br&gt;&lt;/span&gt;" style="rounded=1;whiteSpace=wrap;html=1;fontSize=15;align=left;" vertex="1" parent="87">
                    <mxGeometry x="6.989999999999981" y="121.14317425083239" width="131.69" height="94.94339622641509" as="geometry"/>
                </mxCell>
                <mxCell id="88" value="" style="group" vertex="1" connectable="0" parent="87">
                    <mxGeometry width="151" height="231.25" as="geometry"/>
                </mxCell>
                <mxCell id="36" value="" style="rounded=1;whiteSpace=wrap;html=1;fontSize=12;fillColor=none;" vertex="1" parent="88">
                    <mxGeometry width="151" height="231.25" as="geometry"/>
                </mxCell>
                <mxCell id="37" value="sidebar sticky" style="rounded=1;whiteSpace=wrap;html=1;fontSize=12;fillColor=none;" vertex="1" parent="88">
                    <mxGeometry x="18.680000000000007" y="11" width="120" height="13" as="geometry"/>
                </mxCell>
                <mxCell id="59" value="" style="group" vertex="1" connectable="0" parent="1">
                    <mxGeometry x="1203" y="33" width="162.97" height="298" as="geometry"/>
                </mxCell>
                <mxCell id="54" value="Calendar with availabilitiy&lt;br&gt;&lt;br&gt;Book Now" style="rounded=1;whiteSpace=wrap;html=1;fontSize=15;" vertex="1" parent="59">
                    <mxGeometry x="12.650000000000006" y="142" width="131.69" height="83" as="geometry"/>
                </mxCell>
                <mxCell id="55" value="Media Slide Show / Video?" style="rounded=1;whiteSpace=wrap;html=1;fontSize=12;" vertex="1" parent="59">
                    <mxGeometry x="11.299999999999997" y="34" width="134.41" height="43" as="geometry"/>
                </mxCell>
                <mxCell id="56" value="&lt;span style=&quot;font-size: 14px;&quot;&gt;Details / Info on the space&lt;br style=&quot;font-size: 14px;&quot;&gt;&lt;/span&gt;" style="rounded=1;whiteSpace=wrap;html=1;fontSize=14;align=left;" vertex="1" parent="59">
                    <mxGeometry x="13.709999999999994" y="86" width="132" height="43" as="geometry"/>
                </mxCell>
                <mxCell id="58" value="FAQ maybe with some movement" style="rounded=1;whiteSpace=wrap;html=1;fontSize=12;" vertex="1" parent="59">
                    <mxGeometry x="13.709999999999994" y="232" width="126.29" height="55.48" as="geometry"/>
                </mxCell>
                <mxCell id="57" style="edgeStyle=none;html=1;exitX=0;exitY=1;exitDx=0;exitDy=0;fontSize=14;" edge="1" parent="59" source="54" target="38">
                    <mxGeometry relative="1" as="geometry"/>
                </mxCell>
                <mxCell id="50" value="&lt;font style=&quot;font-size: 12px;&quot;&gt;User icon Login/logout&lt;/font&gt;" style="rounded=1;whiteSpace=wrap;html=1;fontSize=8;align=right;" vertex="1" parent="59">
                    <mxGeometry x="36.5" y="6" width="126.47" height="13.68" as="geometry"/>
                </mxCell>
                <mxCell id="65" value="" style="group" vertex="1" connectable="0" parent="59">
                    <mxGeometry width="157" height="298" as="geometry"/>
                </mxCell>
                <mxCell id="38" value="" style="rounded=0;whiteSpace=wrap;html=1;fontSize=12;fillColor=none;" vertex="1" parent="65">
                    <mxGeometry width="157" height="298" as="geometry"/>
                </mxCell>
                <mxCell id="53" value="&lt;br&gt;G" style="ellipse;whiteSpace=wrap;html=1;aspect=fixed;fontSize=12;fillColor=none;strokeWidth=2;" vertex="1" parent="65">
                    <mxGeometry x="7" y="3" width="25" height="25" as="geometry"/>
                </mxCell>
                <mxCell id="81" style="edgeStyle=none;html=1;exitX=0.5;exitY=1;exitDx=0;exitDy=0;entryX=0.5;entryY=0;entryDx=0;entryDy=0;fontSize=13;fontColor=#43ce27;strokeWidth=3;fillColor=#60a917;strokeColor=#2D7600;" edge="1" parent="1" source="72" target="101">
                    <mxGeometry relative="1" as="geometry"/>
                </mxCell>
                <mxCell id="72" value="Authenticate" style="rhombus;whiteSpace=wrap;html=1;labelBorderColor=none;strokeColor=#A50040;strokeWidth=4;fontSize=17;fillColor=#d80073;fontColor=#ffffff;" vertex="1" parent="1">
                    <mxGeometry x="198" y="506" width="160" height="89" as="geometry"/>
                </mxCell>
                <mxCell id="76" style="edgeStyle=none;html=1;exitX=0.5;exitY=1;exitDx=0;exitDy=0;entryX=0;entryY=0.5;entryDx=0;entryDy=0;fontSize=13;fontColor=#43ce27;fillColor=#60a917;strokeColor=#2D7600;strokeWidth=3;" edge="1" parent="1" source="23" target="72">
                    <mxGeometry relative="1" as="geometry">
                        <Array as="points">
                            <mxPoint x="-437" y="551"/>
                        </Array>
                    </mxGeometry>
                </mxCell>
                <mxCell id="83" value="&lt;font color=&quot;#050505&quot; style=&quot;font-size: 15px;&quot;&gt;Explore Page&lt;/font&gt;" style="rounded=1;whiteSpace=wrap;html=1;labelBackgroundColor=none;labelBorderColor=#FCC40A;strokeColor=#d79b00;strokeWidth=4;fontSize=13;fillColor=#ffcd28;gradientColor=#ffa500;" vertex="1" parent="1">
                    <mxGeometry x="-468.5" y="201" width="354" height="32" as="geometry"/>
                </mxCell>
                <mxCell id="112" style="edgeStyle=none;html=1;exitX=1;exitY=0.5;exitDx=0;exitDy=0;entryX=0.5;entryY=0;entryDx=0;entryDy=0;strokeWidth=3;fontSize=17;fontColor=#fbf9f9;" edge="1" parent="1" source="100" target="109">
                    <mxGeometry relative="1" as="geometry">
                        <Array as="points">
                            <mxPoint x="709" y="39"/>
                        </Array>
                    </mxGeometry>
                </mxCell>
                <mxCell id="100" value="Login" style="rounded=1;whiteSpace=wrap;html=1;fontSize=17;align=center;" vertex="1" parent="1">
                    <mxGeometry x="366" y="30" width="94" height="27" as="geometry"/>
                </mxCell>
                <mxCell id="118" style="edgeStyle=none;html=1;exitX=1;exitY=0.5;exitDx=0;exitDy=0;entryX=0;entryY=0.5;entryDx=0;entryDy=0;strokeWidth=3;fontSize=17;fontColor=#fbf9f9;" edge="1" parent="1" source="101" target="108">
                    <mxGeometry relative="1" as="geometry"/>
                </mxCell>
                <mxCell id="101" value="Prompt for walkthrough or straight to booking. Include field with walkthrough date in form" style="shape=hexagon;perimeter=hexagonPerimeter2;whiteSpace=wrap;html=1;fixedSize=1;labelBackgroundColor=none;labelBorderColor=none;strokeColor=#FCC40A;strokeWidth=4;fontSize=17;fontColor=#fbf9f9;fillColor=default;" vertex="1" parent="1">
                    <mxGeometry x="157" y="622" width="242" height="104" as="geometry"/>
                </mxCell>
                <mxCell id="104" value="" style="group" vertex="1" connectable="0" parent="1">
                    <mxGeometry x="129" y="971" width="491" height="251.75" as="geometry"/>
                </mxCell>
                <mxCell id="71" value="" style="rounded=0;whiteSpace=wrap;html=1;labelBorderColor=#FCC40A;strokeColor=#2D7600;strokeWidth=4;fontSize=14;fillColor=#60a917;fontColor=#ffffff;" vertex="1" parent="104">
                    <mxGeometry width="491" height="251.75" as="geometry"/>
                </mxCell>
                <mxCell id="85" value="Dynamic Window&lt;br&gt;Will be used for Forms&amp;nbsp;" style="rounded=1;whiteSpace=wrap;html=1;labelBackgroundColor=none;labelBorderColor=#FCC40A;strokeColor=#006EAF;strokeWidth=4;fontSize=17;fontColor=#ffffff;fillColor=default;" vertex="1" parent="104">
                    <mxGeometry x="206.5" y="79" width="264" height="157.13" as="geometry"/>
                </mxCell>
                <mxCell id="89" value="" style="group" vertex="1" connectable="0" parent="104">
                    <mxGeometry x="14.5" y="20" width="151" height="225.25" as="geometry"/>
                </mxCell>
                <mxCell id="90" value="Calendar with availabilitiy&lt;br&gt;&lt;br&gt;&lt;span style=&quot;font-size: 8px; text-align: left;&quot;&gt;&lt;font style=&quot;font-size: 13px;&quot; color=&quot;#43ce27&quot;&gt;&amp;nbsp;Book Now&lt;/font&gt;&lt;/span&gt;" style="rounded=1;whiteSpace=wrap;html=1;fontSize=15;" vertex="1" parent="89">
                    <mxGeometry x="6.990000000000002" y="23.619999999999997" width="131.69" height="81" as="geometry"/>
                </mxCell>
                <mxCell id="91" value="" style="group" vertex="1" connectable="0" parent="89">
                    <mxGeometry y="-6" width="151" height="231.25" as="geometry"/>
                </mxCell>
                <mxCell id="92" value="&lt;span style=&quot;font-size: 8px;&quot;&gt;Details / Info on the space&lt;br&gt;&lt;/span&gt;" style="rounded=1;whiteSpace=wrap;html=1;fontSize=15;align=left;" vertex="1" parent="91">
                    <mxGeometry x="6.989999999999981" y="121.14317425083239" width="131.69" height="94.94339622641509" as="geometry"/>
                </mxCell>
                <mxCell id="93" value="" style="group" vertex="1" connectable="0" parent="91">
                    <mxGeometry width="151" height="231.25" as="geometry"/>
                </mxCell>
                <mxCell id="94" value="" style="rounded=1;whiteSpace=wrap;html=1;fontSize=12;fillColor=none;" vertex="1" parent="93">
                    <mxGeometry width="151" height="231.25" as="geometry"/>
                </mxCell>
                <mxCell id="95" value="sidebar sticky" style="rounded=1;whiteSpace=wrap;html=1;fontSize=12;fillColor=none;" vertex="1" parent="93">
                    <mxGeometry x="18.680000000000007" y="11" width="120" height="13" as="geometry"/>
                </mxCell>
                <mxCell id="96" value="&lt;font color=&quot;#fbf9f9&quot;&gt;Renders upcoming/past events&lt;/font&gt;" style="rounded=1;whiteSpace=wrap;html=1;labelBackgroundColor=none;labelBorderColor=none;strokeColor=#C73500;strokeWidth=4;fontSize=17;fontColor=#000000;fillColor=#fa6800;" vertex="1" parent="104">
                    <mxGeometry x="202.5" y="38" width="271" height="29" as="geometry"/>
                </mxCell>
                <mxCell id="106" value="" style="edgeStyle=none;html=1;exitX=0.5;exitY=1;exitDx=0;exitDy=0;entryX=0.5;entryY=0;entryDx=0;entryDy=0;strokeWidth=3;fontSize=17;fontColor=#fbf9f9;endArrow=none;" edge="1" parent="1" source="101" target="84">
                    <mxGeometry relative="1" as="geometry">
                        <mxPoint x="271" y="736.9999999999998" as="sourcePoint"/>
                        <mxPoint x="271" y="825" as="targetPoint"/>
                    </mxGeometry>
                </mxCell>
                <mxCell id="120" style="edgeStyle=none;html=1;exitX=0.5;exitY=1;exitDx=0;exitDy=0;entryX=0.304;entryY=-0.005;entryDx=0;entryDy=0;entryPerimeter=0;strokeWidth=3;fontSize=17;fontColor=#fbf9f9;" edge="1" parent="1" source="84" target="71">
                    <mxGeometry relative="1" as="geometry"/>
                </mxCell>
                <mxCell id="84" value="Dash with form prepped" style="rounded=1;whiteSpace=wrap;html=1;fillColor=#60a917;fontColor=#050505;strokeColor=#2D7600;strokeWidth=4;fontSize=18;" vertex="1" parent="1">
                    <mxGeometry x="207.5" y="863" width="141" height="40" as="geometry"/>
                </mxCell>
                <mxCell id="107" value="YES" style="rounded=1;whiteSpace=wrap;html=1;fillColor=#60a917;fontColor=#050505;strokeColor=#2D7600;strokeWidth=4;fontSize=18;" vertex="1" parent="1">
                    <mxGeometry x="207.5" y="774" width="141" height="40" as="geometry"/>
                </mxCell>
                <mxCell id="121" style="edgeStyle=none;html=1;exitX=0.5;exitY=1;exitDx=0;exitDy=0;entryX=0.5;entryY=0;entryDx=0;entryDy=0;strokeWidth=3;fontSize=17;fontColor=#fbf9f9;" edge="1" parent="1" source="108" target="114">
                    <mxGeometry relative="1" as="geometry"/>
                </mxCell>
                <mxCell id="108" value="NO" style="rounded=1;whiteSpace=wrap;html=1;fillColor=#60a917;fontColor=#050505;strokeColor=#2D7600;strokeWidth=4;fontSize=18;" vertex="1" parent="1">
                    <mxGeometry x="460" y="654" width="141" height="40" as="geometry"/>
                </mxCell>
                <mxCell id="119" style="edgeStyle=none;html=1;exitX=0;exitY=0.5;exitDx=0;exitDy=0;entryX=1;entryY=0.5;entryDx=0;entryDy=0;strokeWidth=3;fontSize=17;fontColor=#fbf9f9;" edge="1" parent="1" source="109" target="108">
                    <mxGeometry relative="1" as="geometry"/>
                </mxCell>
                <mxCell id="136" style="edgeStyle=none;html=1;exitX=1;exitY=0.5;exitDx=0;exitDy=0;entryX=0.5;entryY=0;entryDx=0;entryDy=0;strokeWidth=3;fontSize=26;fontColor=#fbf9f9;" edge="1" parent="1" source="109" target="135">
                    <mxGeometry relative="1" as="geometry">
                        <Array as="points">
                            <mxPoint x="1013" y="674"/>
                        </Array>
                    </mxGeometry>
                </mxCell>
                <mxCell id="109" value="Admin?" style="ellipse;whiteSpace=wrap;html=1;aspect=fixed;labelBackgroundColor=none;labelBorderColor=none;strokeColor=#3700CC;strokeWidth=4;fontSize=17;fontColor=#ffffff;fillColor=#6a00ff;" vertex="1" parent="1">
                    <mxGeometry x="651" y="614" width="120" height="120" as="geometry"/>
                </mxCell>
                <mxCell id="122" style="edgeStyle=none;html=1;exitX=0.5;exitY=1;exitDx=0;exitDy=0;entryX=0.818;entryY=0.012;entryDx=0;entryDy=0;entryPerimeter=0;strokeWidth=3;fontSize=17;fontColor=#fbf9f9;" edge="1" parent="1" source="114" target="71">
                    <mxGeometry relative="1" as="geometry"/>
                </mxCell>
                <mxCell id="114" value="Generic User Dash" style="rounded=1;whiteSpace=wrap;html=1;fillColor=#60a917;fontColor=#050505;strokeColor=#2D7600;strokeWidth=4;fontSize=18;" vertex="1" parent="1">
                    <mxGeometry x="460" y="852" width="141" height="40" as="geometry"/>
                </mxCell>
                <mxCell id="117" value="" style="group" vertex="1" connectable="0" parent="1">
                    <mxGeometry x="1021" y="33" width="159" height="290" as="geometry"/>
                </mxCell>
                <mxCell id="6" value="" style="rounded=0;whiteSpace=wrap;html=1;" vertex="1" parent="117">
                    <mxGeometry width="159" height="290" as="geometry"/>
                </mxCell>
                <mxCell id="7" value="&lt;p style=&quot;line-height: 50%;&quot;&gt;&lt;font style=&quot;font-size: 23px;&quot;&gt;GARDEN&amp;nbsp;&lt;/font&gt;&lt;/p&gt;&lt;p style=&quot;line-height: 50%;&quot;&gt;&lt;font style=&quot;font-size: 23px;&quot;&gt;249&lt;/font&gt;&lt;/p&gt;" style="rounded=1;whiteSpace=wrap;html=1;" vertex="1" parent="117">
                    <mxGeometry x="12.75" y="51" width="133.5" height="60" as="geometry"/>
                </mxCell>
                <mxCell id="9" value="Book Now" style="rounded=1;whiteSpace=wrap;html=1;" vertex="1" parent="117">
                    <mxGeometry x="12.75" y="157" width="133.25" height="32" as="geometry"/>
                </mxCell>
                <mxCell id="10" value="Explore" style="rounded=1;whiteSpace=wrap;html=1;" vertex="1" parent="117">
                    <mxGeometry x="12.75" y="203" width="132.25" height="33" as="geometry"/>
                </mxCell>
                <mxCell id="13" value="&lt;font style=&quot;font-size: 17px;&quot;&gt;Footer&lt;/font&gt;" style="rounded=0;whiteSpace=wrap;html=1;fontSize=23;" vertex="1" parent="117">
                    <mxGeometry x="1" y="267" width="158" height="23" as="geometry"/>
                </mxCell>
                <mxCell id="116" style="edgeStyle=none;html=1;strokeWidth=3;fontSize=17;fontColor=#fbf9f9;" edge="1" parent="117" source="7" target="6">
                    <mxGeometry relative="1" as="geometry"/>
                </mxCell>
                <mxCell id="135" value="&lt;font style=&quot;font-size: 26px;&quot;&gt;Admin Dashboard&lt;/font&gt;" style="rounded=0;whiteSpace=wrap;html=1;labelBackgroundColor=none;labelBorderColor=none;strokeColor=#3700CC;strokeWidth=4;fontSize=17;fontColor=#ffffff;fillColor=#6a00ff;" vertex="1" parent="1">
                    <mxGeometry x="805" y="971" width="416" height="260" as="geometry"/>
                </mxCell>
            </root>
        </mxGraphModel>
    </diagram>
</mxfile>